<?xml version="1.0" encoding="UTF-8"?>
<svg version="1.1" xmlns="http://www.w3.org/2000/svg" width="500" height="500">
<path d="M0 0 C165 0 330 0 500 0 C500 165 500 330 500 500 C335 500 170 500 0 500 C0 335 0 170 0 0 Z " fill="#FEFEFE" transform="translate(0,0)"/>
<path d="M0 0 C1.02037354 -0.00960754 2.04074707 -0.01921509 3.09204102 -0.02911377 C4.77124634 -0.03548859 4.77124634 -0.03548859 6.484375 -0.04199219 C8.22448853 -0.0505423 8.22448853 -0.0505423 9.99975586 -0.05926514 C12.47818078 -0.06874912 14.9566185 -0.07526249 17.43505859 -0.07910156 C21.13533752 -0.08861263 24.83501271 -0.11951659 28.53515625 -0.15136719 C67.15525082 -0.32445036 102.5559129 5.38943533 131.265625 33.16503906 C147.23668214 49.06047567 156.47713437 69.13126871 160.234375 91.16113281 C160.51087891 92.70994141 160.51087891 92.70994141 160.79296875 94.29003906 C164.15572306 123.78109678 158.90677423 155.79045333 140.171875 179.59863281 C138.86783482 181.12672623 137.55589326 182.64812925 136.234375 184.16113281 C135.44160156 185.16853516 135.44160156 185.16853516 134.6328125 186.19628906 C117.77307332 207.084094 89.1740851 218.25433499 63.234375 221.16113281 C61.914375 221.16113281 60.594375 221.16113281 59.234375 221.16113281 C59.234375 222.48113281 59.234375 223.80113281 59.234375 225.16113281 C29.204375 225.16113281 -0.825625 225.16113281 -31.765625 225.16113281 C-31.765625 224.17113281 -31.765625 223.18113281 -31.765625 222.16113281 C-37.375625 222.16113281 -42.985625 222.16113281 -48.765625 222.16113281 C-49.19911435 214.90018618 -48.09979426 209.49117339 -45.85546875 202.60644531 C-40.28330416 184.99121532 -41.11014256 167.37143962 -42.765625 149.16113281 C-62.895625 149.16113281 -83.025625 149.16113281 -103.765625 149.16113281 C-103.78625 154.87425781 -103.806875 160.58738281 -103.828125 166.47363281 C-103.837229 168.25294189 -103.84633301 170.03225098 -103.85571289 171.86547852 C-103.89447136 184.21098513 -103.12110491 195.67227948 -100.13867188 207.68457031 C-99.04893166 212.26706764 -98.47634306 216.40952315 -98.765625 221.16113281 C-100.44621864 222.84172645 -102.54081279 222.34892972 -104.84863281 222.40161133 C-105.93356018 222.42735733 -107.01848755 222.45310333 -108.1362915 222.47962952 C-113.11239552 222.56353954 -118.08834274 222.62966343 -123.06494141 222.67602539 C-125.69181413 222.70768033 -128.31854367 222.75544883 -130.94482422 222.81958008 C-134.7241818 222.91067473 -138.50096138 222.9496148 -142.28125 222.97753906 C-143.45536438 223.01569229 -144.62947876 223.05384552 -145.83917236 223.09315491 C-153.76340523 223.07421359 -153.76340523 223.07421359 -156.54229736 220.54248047 C-157.87695804 218.46693353 -158.84348888 216.44709736 -159.765625 214.16113281 C-160.29961914 213.11683105 -160.83361328 212.0725293 -161.38378906 210.99658203 C-161.84495117 209.99643066 -162.30611328 208.9962793 -162.78125 207.96582031 C-163.56798096 206.2829895 -163.56798096 206.2829895 -164.37060547 204.56616211 C-164.91346191 203.40125244 -165.45631836 202.23634277 -166.015625 201.03613281 C-175.79055174 178.77011795 -175.79055174 178.77011795 -194.515625 164.84863281 C-196.26069059 164.27100635 -198.01012695 163.70623173 -199.765625 163.16113281 C-200.755625 162.83113281 -201.745625 162.50113281 -202.765625 162.16113281 C-204.31829153 162.01466141 -205.87558162 161.91419207 -207.43359375 161.84472656 C-208.32626953 161.80283203 -209.21894531 161.7609375 -210.13867188 161.71777344 C-211.06744141 161.67845703 -211.99621094 161.63914062 -212.953125 161.59863281 C-213.89349609 161.55544922 -214.83386719 161.51226562 -215.80273438 161.46777344 C-218.12355354 161.36174617 -220.44447825 161.25968252 -222.765625 161.16113281 C-220.47901707 177.36154939 -218.00323483 193.13174807 -213.00170898 208.75878906 C-212.56580444 210.12197266 -212.56580444 210.12197266 -212.12109375 211.51269531 C-211.85965576 212.29467285 -211.59821777 213.07665039 -211.32885742 213.88232422 C-210.7060079 216.40234043 -210.59803477 218.57474029 -210.765625 221.16113281 C-211.765625 222.16113281 -211.765625 222.16113281 -215.55102539 222.2746582 C-217.23845229 222.27449904 -218.92588405 222.26880198 -220.61328125 222.25878906 C-221.94292152 222.25666664 -221.94292152 222.25666664 -223.29942322 222.25450134 C-226.14235754 222.24888497 -228.98521431 222.23632973 -231.828125 222.22363281 C-233.75064991 222.21861992 -235.67317604 222.21405665 -237.59570312 222.20996094 C-242.31904049 222.19891022 -247.04231958 222.18163464 -251.765625 222.16113281 C-251.88337179 217.32738496 -251.81750016 213.336818 -250.33984375 208.69238281 C-250.03908936 207.71744873 -249.73833496 206.74251465 -249.4284668 205.73803711 C-248.94567261 204.21496948 -248.94567261 204.21496948 -248.453125 202.66113281 C-245.58174222 193.19051906 -243.22962335 183.95828195 -241.765625 174.16113281 C-241.49709717 172.39237793 -241.49709717 172.39237793 -241.22314453 170.58789062 C-239.08571146 154.61115779 -239.42633713 138.45327595 -239.44995117 122.36791992 C-239.4545656 118.95437382 -239.44771446 115.54118543 -239.42944336 112.12768555 C-239.26275431 80.65481215 -239.53619291 48.26778527 -251.21484375 18.51342773 C-252.02938782 15.03464577 -251.84407501 11.72990781 -251.765625 8.16113281 C-244.28026147 8.11447493 -236.79491332 8.07909566 -229.3094368 8.05750847 C-225.83237769 8.04713964 -222.3554192 8.03310927 -218.87841797 8.01025391 C-214.86685302 7.98405437 -210.8553912 7.9746031 -206.84375 7.96582031 C-205.61513245 7.95549774 -204.38651489 7.94517517 -203.1206665 7.93453979 C-192.56868264 7.93318931 -182.50167939 9.01334688 -172.640625 12.91113281 C-171.62125854 13.30691528 -171.62125854 13.30691528 -170.58129883 13.71069336 C-152.12344306 21.09339687 -138.16367859 34.31949294 -130.0222168 52.47241211 C-121.67148075 72.29259275 -122.21064617 96.43715996 -130.07373047 116.30957031 C-133.24379333 123.88533408 -137.1309933 130.12402741 -142.765625 136.16113281 C-143.39210938 136.86625 -144.01859375 137.57136719 -144.6640625 138.29785156 C-153.61272379 147.88570295 -166.84709492 155.43141884 -179.765625 158.16113281 C-178.9921875 158.51304687 -178.21875 158.86496094 -177.421875 159.22753906 C-167.99991065 163.69364345 -161.4986608 168.91974066 -154.796875 176.80957031 C-152.26731138 179.73802666 -149.64667107 182.57397562 -147.015625 185.41113281 C-146.50628418 185.9615625 -145.99694336 186.51199219 -145.47216797 187.07910156 C-143.37603328 189.34405687 -141.27854741 191.60775811 -139.18066406 193.87109375 C-137.66531111 195.50759922 -136.15270986 197.14660803 -134.640625 198.78613281 C-133.75117188 199.74777344 -132.86171875 200.70941406 -131.9453125 201.70019531 C-129.765625 204.16113281 -129.765625 204.16113281 -127.765625 207.16113281 C-113.36691956 168.81591725 -105.75662861 129.56073932 -97.96655273 89.45355225 C-95.23971762 75.43116476 -92.47711137 61.41587415 -89.69169426 47.40501022 C-88.9006918 43.42592591 -88.1118026 39.44645147 -87.32830811 35.46588135 C-86.58787545 31.70423325 -85.84196954 27.94371204 -85.09188461 24.18397713 C-84.81439331 22.78816964 -84.53887629 21.39196805 -84.26544571 19.99535942 C-83.88872983 18.07307279 -83.50412453 16.1523373 -83.11914062 14.23168945 C-82.9050354 13.15085587 -82.69093018 12.07002228 -82.47033691 10.95643616 C-81.765625 8.16113281 -81.765625 8.16113281 -79.765625 4.16113281 C-67.225625 4.16113281 -54.685625 4.16113281 -41.765625 4.16113281 C-40.7374341 8.27389643 -40.877314 9.51998835 -41.9453125 13.45019531 C-42.34943359 14.98740234 -42.34943359 14.98740234 -42.76171875 16.55566406 C-43.19677734 18.15474609 -43.19677734 18.15474609 -43.640625 19.78613281 C-46.82910085 31.56456642 -47.94567703 42.35124572 -47.953125 54.53613281 C-47.96537109 55.58285156 -47.97761719 56.62957031 -47.99023438 57.70800781 C-48.0101705 68.47351307 -46.0838855 78.58879907 -43.390625 88.97363281 C-43.06191406 90.26418579 -43.06191406 90.26418579 -42.7265625 91.58081055 C-41.12476893 97.84421919 -39.47344645 104.0941756 -37.79296875 110.33691406 C-36.62323678 114.6911635 -35.47383688 119.0505139 -34.328125 123.41113281 C-34.14701172 124.10021729 -33.96589844 124.78930176 -33.77929688 125.49926758 C-33.49602539 126.57712524 -33.49602539 126.57712524 -33.20703125 127.67675781 C-32.99377197 128.48612793 -32.7805127 129.29549805 -32.56079102 130.12939453 C-31.93224522 132.52585806 -31.30864027 134.92345509 -30.68725586 137.32177734 C-27.91962578 147.96774913 -24.9863148 158.5553977 -21.90844727 169.11572266 C-21.19737169 171.5558761 -20.49002346 173.9970875 -19.78320312 176.43847656 C-17.45985098 184.4477309 -15.0960793 192.44088242 -12.62036133 200.40454102 C-11.30474174 204.64751752 -10.0341518 208.90387999 -8.765625 213.16113281 C-7.775625 212.83113281 -6.785625 212.50113281 -5.765625 212.16113281 C-2.77154349 206.05781281 -1.64898872 201.29677528 -1.56030273 194.55664062 C-1.55040314 193.90256729 -1.54050354 193.24849396 -1.53030396 192.57460022 C-1.49881649 190.42118907 -1.47398228 188.2677559 -1.44921875 186.11425781 C-1.42863819 184.6178125 -1.40764143 183.12137285 -1.38624573 181.62493896 C-1.33113882 177.69261272 -1.28167953 173.76023501 -1.23339844 169.82781982 C-1.17425162 165.10621021 -1.10808645 160.38469436 -1.04309845 155.66316223 C-0.94523217 148.49587652 -0.8562783 141.32852974 -0.765625 134.16113281 C9.134375 134.16113281 19.034375 134.16113281 29.234375 134.16113281 C29.23848389 136.30033203 29.24259277 138.43953125 29.24682617 140.64355469 C29.26406747 147.73240894 29.30864194 154.82090477 29.36646557 161.90953827 C29.40067362 166.20506189 29.42583585 170.50023219 29.42993164 174.79589844 C29.43422798 178.94595077 29.46280004 183.09520694 29.50780678 187.24501038 C29.52073937 188.82368828 29.52510453 190.40246167 29.52052879 191.98118591 C29.34480198 202.96690193 29.34480198 202.96690193 33.77485657 212.79699707 C35.45541549 214.36772782 37.1378289 215.23730992 39.234375 216.16113281 C39.234375 215.50113281 39.234375 214.84113281 39.234375 214.16113281 C39.89856445 214.11625732 40.56275391 214.07138184 41.24707031 214.02514648 C71.21535327 211.93838519 94.28863963 205.07416805 115.453125 182.82910156 C136.51763126 158.29563892 140.26887451 125.70803069 137.9609375 94.66113281 C135.13308812 69.90411185 123.79397518 45.48294919 104.77734375 29.03613281 C87.63173688 15.87488736 66.96301984 8.9926453 45.421875 8.97363281 C44.29749023 8.95526367 44.29749023 8.95526367 43.15039062 8.93652344 C39.30685272 8.92621905 37.50726593 8.97920552 34.234375 11.16113281 C31.26046439 11.33335629 28.38234582 11.39307482 25.41015625 11.35644531 C24.54875534 11.35361542 23.68735443 11.35078552 22.79985046 11.34786987 C20.04871731 11.33667519 17.29790975 11.31157202 14.546875 11.28613281 C12.68164533 11.27610209 10.81641055 11.2669764 8.95117188 11.25878906 C4.3787808 11.23673819 -0.19336689 11.2022133 -4.765625 11.16113281 C-5.93023926 7.66729002 -5.90130819 4.82457892 -5.765625 1.16113281 C-4.12787348 -0.4766187 -2.25906489 0.01714939 0 0 Z " fill="#040404" transform="translate(262.765625,121.8388671875)"/>
<path d="M0 0 C16.30849656 4.19473349 28.47281068 12.6005178 37.1875 27.125 C48.64226749 48.20177218 49.84456858 72.68938444 43.22851562 95.55249023 C38.64140833 110.35481825 29.67041479 121.86288455 16.05444336 129.31738281 C4.06286596 135.49058701 -6.85260007 137.17070894 -20.21484375 137.0625 C-21.27828003 137.05798828 -22.34171631 137.05347656 -23.43737793 137.04882812 C-26.04164488 137.03712684 -28.64579193 137.02073271 -31.25 137 C-31.34392735 122.93417957 -31.41394714 108.8684086 -31.45724869 94.80233765 C-31.47804097 88.26948092 -31.50620493 81.73683628 -31.55175781 75.20410156 C-31.59551477 68.88873232 -31.61919982 62.57356589 -31.62950897 56.25805664 C-31.63684705 53.85974947 -31.65117511 51.46145223 -31.67292023 49.06323242 C-31.97534099 14.29803294 -31.97534099 14.29803294 -22.25 2 C-16.37395912 -3.52221476 -7.31270583 -1.40243673 0 0 Z " fill="#FEFEFE" transform="translate(70.25,138)"/>
<path d="M0 0 C2.60421455 2.60421455 2.84812982 4.66663343 3.734375 8.23828125 C3.97180672 9.1796846 3.97180672 9.1796846 4.21403503 10.1401062 C4.55420622 11.49081551 4.89135381 12.84228914 5.22579956 14.19442749 C6.11105385 17.77136607 7.01867307 21.34261435 7.92578125 24.9140625 C8.1053688 25.62292099 8.28495636 26.33177948 8.46998596 27.06211853 C9.84764976 32.47284917 11.35112205 37.83501813 12.9375 43.1875 C16.22063351 54.3522217 18.96876642 65.65307184 21.75366211 76.94995117 C24.99758445 90.10131003 28.41084983 103.18424789 32.265625 116.171875 C33 119 33 119 33 122 C14.19 122 -4.62 122 -24 122 C-22.7343519 113.77328735 -21.41521042 105.65871633 -19.75341797 97.51831055 C-19.53854736 96.45327301 -19.32367676 95.38823547 -19.10229492 94.29092407 C-18.40177076 90.82227326 -17.69702266 87.35449588 -16.9921875 83.88671875 C-16.50153757 81.46154509 -16.01115487 79.03631735 -15.52102661 76.61103821 C-14.2381136 70.26651833 -12.95160022 63.92273387 -11.66430664 57.57910156 C-10.34822555 51.09028851 -9.03559092 44.60077841 -7.72265625 38.11132812 C-5.15178849 25.40687204 -2.57722948 12.70316699 0 0 Z " fill="#FBFBFB" transform="translate(185,143)"/>
<path d="M0 0 C1.32 0 2.64 0 4 0 C6.29446155 4.70911471 8.58726066 9.41903419 10.87866211 14.12963867 C11.65492195 15.72490146 12.43160001 17.31996083 13.20874023 18.91479492 C13.58264893 19.68218994 13.95655762 20.44958496 14.34179688 21.24023438 C14.90156471 22.38853981 14.90156471 22.38853981 15.47264099 23.56004333 C16.22610445 25.11306981 16.97498076 26.6683297 17.71937561 28.22572327 C19.44060679 31.82537471 21.18889835 35.38626042 23.10522461 38.88647461 C28.2348328 48.49924541 28.87698414 56.72996065 28.4375 67.4375 C28.40226186 68.95891074 28.37034533 70.48040215 28.34179688 72.00195312 C28.26593864 75.66969218 28.14588427 79.33429691 28 83 C25.22400875 81.61200437 25.11968144 80.19814958 24 77.3125 C17.46865172 61.14789467 10.01396889 45.30871397 1.88574219 29.88574219 C1.51868164 29.17836914 1.15162109 28.47099609 0.7734375 27.7421875 C0.26562744 26.77708252 0.26562744 26.77708252 -0.25244141 25.79248047 C-1 24 -1 24 -1 21 C-1.66 21 -2.32 21 -3 21 C-3.26039063 21.84949219 -3.52078125 22.69898438 -3.7890625 23.57421875 C-5.05356671 27.15154196 -6.6380067 30.45108815 -8.375 33.8125 C-12.59017486 42.09908251 -16.60987669 50.47468797 -20.61083984 58.86645508 C-21.33327881 60.37888794 -21.33327881 60.37888794 -22.0703125 61.921875 C-22.54573486 62.91848145 -23.02115723 63.91508789 -23.51098633 64.94189453 C-25.54454273 69.11837058 -27.68391062 73.23911722 -29.83911133 77.35400391 C-31.54892272 81.25115131 -31.69722407 83.8166556 -31 88 C-28.09907498 89.93395001 -27.10325263 90.30131941 -23.8125 90.625 C-21.9253125 90.810625 -21.9253125 90.810625 -20 91 C-20 91.99 -20 92.98 -20 94 C-30.89 94 -41.78 94 -53 94 C-53 93.01 -53 92.02 -53 91 C-50.11914062 90.12109375 -50.11914062 90.12109375 -47.23828125 89.2421875 C-41.87320079 86.26470829 -39.02515138 80.5428024 -36.3984375 75.22265625 C-36.08031601 74.58353302 -35.76219452 73.94440979 -35.43443298 73.28591919 C-34.40654608 71.21532888 -33.39054091 69.13916951 -32.375 67.0625 C-31.6583302 65.61147117 -30.94112088 64.1607087 -30.22338867 62.71020508 C-24.8655727 51.85956697 -19.62135911 40.95521062 -14.4375 30.02050781 C-11.58381953 24.02428926 -8.69581407 18.04450917 -5.8125 12.0625 C-5.22889732 10.85116774 -4.64531913 9.63982368 -4.06176758 8.4284668 C-2.70813019 5.61884031 -1.35421223 2.80934945 0 0 Z " fill="#1636C9" transform="translate(433,253)"/>
<path d="M0 0 C0.33 0.99 0.66 1.98 1 3 C20.14 3 39.28 3 59 3 C59 5.97 59 8.94 59 12 C32.93 12 6.86 12 -20 12 C-20 8.7 -20 5.4 -20 2 C-13.4 2 -6.8 2 0 2 C0 1.34 0 0.68 0 0 Z " fill="#B89A5B" transform="translate(257,130)"/>
<path d="M0 0 C4.29 0 8.58 0 13 0 C13.06058594 2.10761719 13.12117188 4.21523438 13.18359375 6.38671875 C13.24548699 8.43875343 13.3088315 10.49073857 13.37231445 12.54272461 C13.41549804 13.96357775 13.45718408 15.38447726 13.49731445 16.80541992 C13.55542095 18.8534947 13.61899638 20.90133965 13.68359375 22.94921875 C13.72025146 24.17987061 13.75690918 25.41052246 13.79467773 26.6784668 C13.94365806 30.30434285 13.94365806 30.30434285 15 35 C18.96 35.66 22.92 36.32 27 37 C27 37.99 27 38.98 27 40 C13.8 40 0.6 40 -13 40 C-13 39.01 -13 38.02 -13 37 C-12.30132812 36.89042969 -11.60265625 36.78085937 -10.8828125 36.66796875 C-9.97273438 36.50941406 -9.06265625 36.35085938 -8.125 36.1875 C-7.22007812 36.03667969 -6.31515625 35.88585937 -5.3828125 35.73046875 C-2.65587522 35.16948699 -2.65587522 35.16948699 -1 32 C-0.76034953 29.53615097 -0.62758 27.17459424 -0.5859375 24.70703125 C-0.56657135 24.00100266 -0.5472052 23.29497406 -0.5272522 22.56755066 C-0.46754776 20.31598939 -0.4211086 18.06437672 -0.375 15.8125 C-0.33681171 14.28448311 -0.29775948 12.75648755 -0.2578125 11.22851562 C-0.16185404 7.48585065 -0.07778989 3.7430849 0 0 Z " fill="#1D3BCB" transform="translate(465,306)"/>
<path d="M0 0 C17.49 0 34.98 0 53 0 C53 3.3 53 6.6 53 10 C35.51 10 18.02 10 0 10 C0 6.7 0 3.4 0 0 Z " fill="#BA9C60" transform="translate(250,146)"/>
<path d="M0 0 C2.64 0 5.28 0 8 0 C8.02312792 7.80575195 8.04091738 15.61149595 8.05181217 23.41727352 C8.05704002 27.0414596 8.06413587 30.6656223 8.07543945 34.28979492 C8.08627184 37.78459975 8.09227758 41.27938204 8.09487724 44.77420235 C8.09763551 46.76239389 8.10544688 48.75057631 8.11329651 50.73875427 C8.11337204 51.93992386 8.11344757 53.14109344 8.11352539 54.37866211 C8.115746 55.44233505 8.11796661 56.506008 8.12025452 57.60191345 C8 60 8 60 7 61 C4.69 61 2.38 61 0 61 C0 40.87 0 20.74 0 0 Z " fill="#BB9E61" transform="translate(273,177)"/>
<path d="M0 0 C2.31 0 4.62 0 7 0 C7 20.13 7 40.26 7 61 C5.02 61 3.04 61 1 61 C0 60 0 60 -0.12025452 57.60191345 C-0.11803391 56.53824051 -0.11581329 55.47456757 -0.11352539 54.37866211 C-0.11344986 53.17749252 -0.11337433 51.97632294 -0.11329651 50.73875427 C-0.10813522 49.4314888 -0.10297394 48.12422333 -0.09765625 46.77734375 C-0.09579198 45.43355868 -0.09436812 44.08977293 -0.09336853 42.74598694 C-0.08954402 39.20317723 -0.07971432 35.6604083 -0.06866455 32.11761475 C-0.05844899 28.50484773 -0.0538706 24.89207416 -0.04882812 21.27929688 C-0.03809198 14.1861812 -0.02101636 7.09309326 0 0 Z " fill="#BA9D61" transform="translate(285,177)"/>
<path d="M0 0 C2.31 0 4.62 0 7 0 C7 20.13 7 40.26 7 61 C5.02 61 3.04 61 1 61 C0 60 0 60 -0.12025452 57.60191345 C-0.11803391 56.53824051 -0.11581329 55.47456757 -0.11352539 54.37866211 C-0.11344986 53.17749252 -0.11337433 51.97632294 -0.11329651 50.73875427 C-0.10813522 49.4314888 -0.10297394 48.12422333 -0.09765625 46.77734375 C-0.09579198 45.43355868 -0.09436812 44.08977293 -0.09336853 42.74598694 C-0.08954402 39.20317723 -0.07971432 35.6604083 -0.06866455 32.11761475 C-0.05844899 28.50484773 -0.0538706 24.89207416 -0.04882812 21.27929688 C-0.03809198 14.1861812 -0.02101636 7.09309326 0 0 Z " fill="#BC9F64" transform="translate(261,177)"/>
<path d="M0 0 C10.23 0 20.46 0 31 0 C31 3.3 31 6.6 31 10 C26.74585377 10.02465622 22.49174502 10.04283899 18.23754883 10.05493164 C16.78929927 10.05997101 15.34105483 10.06680253 13.89282227 10.07543945 C11.81525412 10.08752247 9.73775303 10.09323211 7.66015625 10.09765625 C6.40855713 10.10289307 5.15695801 10.10812988 3.86743164 10.11352539 C1 10 1 10 0 9 C0 6.03 0 3.06 0 0 Z " fill="#BB9F63" transform="translate(261,161)"/>
<path d="M0 0 C11.22 0 22.44 0 34 0 C34 1.32 34 2.64 34 4 C22.78 4 11.56 4 0 4 C0 2.68 0 1.36 0 0 Z " fill="#1838CA" transform="translate(455,253)"/>
<path d="M0 0 C1.32 0 2.64 0 4 0 C4 8.58 4 17.16 4 26 C2.68 26.33 1.36 26.66 0 27 C0 18.09 0 9.18 0 0 Z " fill="#425BD3" transform="translate(470,272)"/>
<path d="M0 0 C7.59 0 15.18 0 23 0 C23 1.32 23 2.64 23 4 C15.41 4 7.82 4 0 4 C0 2.68 0 1.36 0 0 Z " fill="#1C3BCB" transform="translate(460,259)"/>
<path d="M0 0 C0.99 0 1.98 0 3 0 C3 8.91 3 17.82 3 27 C2.01 27 1.02 27 0 27 C0 18.09 0 9.18 0 0 Z " fill="#2C49CE" transform="translate(465,272)"/>
<path d="M0 0 C4.29 0 8.58 0 13 0 C13.33 1.32 13.66 2.64 14 4 C13 5 13 5 10.05859375 5.09765625 C8.26615234 5.08025391 8.26615234 5.08025391 6.4375 5.0625 C4.64119141 5.04896484 4.64119141 5.04896484 2.80859375 5.03515625 C1.88175781 5.02355469 0.95492188 5.01195312 0 5 C0 3.35 0 1.7 0 0 Z " fill="#405AD3" transform="translate(465,265)"/>
<path d="M0 0 C0.69649658 0.01571045 1.39299316 0.0314209 2.1105957 0.04760742 C2.86791992 0.05727539 3.62524414 0.06694336 4.40551758 0.0769043 C5.19120117 0.10204102 5.97688477 0.12717773 6.78637695 0.15307617 C7.98230469 0.17337891 7.98230469 0.17337891 9.20239258 0.1940918 C11.16817663 0.22940528 13.13361278 0.2832117 15.09887695 0.34057617 C14.76887695 1.33057617 14.43887695 2.32057617 14.09887695 3.34057617 C7.82887695 3.34057617 1.55887695 3.34057617 -4.90112305 3.34057617 C-1.90112305 0.34057617 -1.90112305 0.34057617 0 0 Z " fill="#E4DFD4" transform="translate(301.901123046875,129.659423828125)"/>
</svg>
